<svg width="22" height="16" viewBox="0 0 22 16" fill="none" xmlns="http://www.w3.org/2000/svg">
<path d="M10.9481 10.5399C7.49811 10.5399 4.58716 11.1037 4.58716 13.2794C4.58716 15.4561 7.51692 16 10.9481 16C14.3981 16 17.309 15.4362 17.309 13.2605C17.309 11.0839 14.3793 10.5399 10.9481 10.5399Z" fill="#959895"/>
<path opacity="0.4" d="M10.9481 8.46703C13.2842 8.46703 15.1574 6.58307 15.1574 4.23351C15.1574 1.88306 13.2842 0 10.9481 0C8.61201 0 6.73883 1.88306 6.73883 4.23351C6.73883 6.58307 8.61201 8.46703 10.9481 8.46703Z" fill="#959895"/>
<path opacity="0.4" d="M20.087 5.21929C20.6914 2.84182 18.9194 0.706604 16.663 0.706604C16.4177 0.706604 16.1831 0.733621 15.9538 0.779549C15.9234 0.786753 15.8894 0.802063 15.8715 0.82908C15.8509 0.863301 15.8661 0.909229 15.8885 0.938947C16.5663 1.89534 16.9558 3.05976 16.9558 4.30973C16.9558 5.50747 16.5985 6.62416 15.9718 7.55083C15.9073 7.64629 15.9646 7.77507 16.0783 7.79488C16.2359 7.8228 16.3971 7.83721 16.5618 7.84171C18.2049 7.88494 19.6796 6.82138 20.087 5.21929Z" fill="#959895"/>
<path d="M21.8084 10.817C21.5075 10.1722 20.7813 9.72999 19.6773 9.51295C19.1562 9.38507 17.7459 9.20496 16.4342 9.22928C16.4145 9.23198 16.4037 9.24549 16.4019 9.25449C16.3992 9.2671 16.4046 9.28871 16.4306 9.30222C17.0368 9.60391 19.38 10.916 19.0855 13.6834C19.0729 13.8032 19.1687 13.9068 19.2878 13.8888C19.8645 13.8059 21.3481 13.4853 21.8084 12.4866C22.0627 11.9589 22.0627 11.3456 21.8084 10.817Z" fill="#959895"/>
<path opacity="0.4" d="M6.04392 0.779793C5.81559 0.732964 5.5801 0.706848 5.33476 0.706848C3.07834 0.706848 1.30634 2.84207 1.91163 5.21953C2.31815 6.82162 3.79287 7.88518 5.43594 7.84195C5.60069 7.83745 5.76276 7.82214 5.91946 7.79513C6.03317 7.77531 6.09048 7.64653 6.02601 7.55107C5.39923 6.6235 5.04196 5.50771 5.04196 4.30997C5.04196 3.0591 5.43236 1.89468 6.11018 0.939192C6.13167 0.909473 6.14778 0.863545 6.12629 0.829324C6.10839 0.801407 6.07526 0.786998 6.04392 0.779793Z" fill="#959895"/>
<path d="M2.32064 9.51264C1.21661 9.72967 0.491332 10.1718 0.190477 10.8166C-0.064713 11.3453 -0.064713 11.9585 0.190477 12.4872C0.650714 13.485 2.1344 13.8065 2.71104 13.8884C2.83012 13.9065 2.92504 13.8038 2.9125 13.6831C2.61791 10.9166 4.96118 9.6045 5.56827 9.30281C5.59334 9.2884 5.59871 9.26769 5.59602 9.25418C5.59423 9.24517 5.58438 9.23166 5.56468 9.22986C4.25202 9.20465 2.84266 9.38476 2.32064 9.51264Z" fill="#959895"/>
</svg>
