<svg width="16" height="20" viewBox="0 0 16 20" fill="none" xmlns="http://www.w3.org/2000/svg">
<path opacity="0.4" d="M7.99026 16.6198L1.49853 19.8623C1.00829 20.1284 0.396767 19.9508 0.122568 19.4626C0.0424886 19.3091 0.000141996 19.1385 -0.000915527 18.9651V11.707C-0.000915527 12.4266 0.404818 12.8708 1.47207 13.3683L7.99026 16.6198Z" fill="#959895"/>
<path fill-rule="evenodd" clip-rule="evenodd" d="M4.89434 0H11.0685C13.7764 0 15.9726 1.06605 15.9991 3.79337V18.9668C15.998 19.1374 15.9556 19.3051 15.8756 19.4554C15.747 19.7007 15.525 19.8827 15.2606 19.9598C14.9961 20.0368 14.7119 20.0023 14.4732 19.8641L7.99026 16.6215L1.47207 13.3701C0.404818 12.8726 -0.000915527 12.4284 -0.000915527 11.7088V3.79337C-0.000915527 1.06605 2.19534 0 4.89434 0ZM4.22159 7.62037H11.7453C12.1788 7.62037 12.5303 7.26638 12.5303 6.82972C12.5303 6.39305 12.1788 6.03906 11.7453 6.03906H4.22159C3.78804 6.03906 3.43658 6.39305 3.43658 6.82972C3.43658 7.26638 3.78804 7.62037 4.22159 7.62037Z" fill="#959895"/>
</svg>
