<svg width="17" height="17" viewBox="0 0 17 17" fill="none" xmlns="http://www.w3.org/2000/svg">
<circle cx="8.5" cy="8.5" r="7.5" stroke="#07143B"/>
<circle cx="5.875" cy="6.62573" r="1.125" fill="#07143B"/>
<circle cx="11.1246" cy="6.62573" r="1.125" fill="#07143B"/>
<path d="M11.5007 9.99853C11.5007 10.3925 11.4231 10.7826 11.2724 11.1466C11.1216 11.5106 10.9006 11.8413 10.6221 12.1199C10.3435 12.3984 10.0128 12.6194 9.64878 12.7702C9.28481 12.9209 8.8947 12.9985 8.50073 12.9985C8.10677 12.9985 7.71666 12.9209 7.35268 12.7702C6.98871 12.6194 6.65799 12.3984 6.37941 12.1199C6.10084 11.8413 5.87986 11.5106 5.72909 11.1466C5.57833 10.7826 5.50073 10.3925 5.50073 9.99853" stroke="#07143B"/>
</svg>
