<svg width="24" height="25" viewBox="0 0 24 25" fill="none" xmlns="http://www.w3.org/2000/svg">
<path d="M19.7695 12.1453C19.039 11.2923 18.7071 10.5531 18.7071 9.29716V8.87013C18.7071 7.23354 18.3304 6.17907 17.5115 5.12459C16.2493 3.48699 14.1244 2.5 12.0442 2.5H11.9558C9.91935 2.5 7.86106 3.44167 6.577 5.0128C5.71333 6.08842 5.29293 7.18822 5.29293 8.87013V9.29716C5.29293 10.5531 4.98284 11.2923 4.23049 12.1453C3.67691 12.7738 3.5 13.5815 3.5 14.4557C3.5 15.3309 3.78723 16.1598 4.36367 16.8336C5.11602 17.6413 6.17846 18.1569 7.26375 18.2466C8.83505 18.4258 10.4063 18.4933 12.0005 18.4933C13.5937 18.4933 15.165 18.3805 16.7372 18.2466C17.8215 18.1569 18.884 17.6413 19.6363 16.8336C20.2118 16.1598 20.5 15.3309 20.5 14.4557C20.5 13.5815 20.3231 12.7738 19.7695 12.1453Z" fill="#EA6A12"/>
<path opacity="0.4" d="M14.0087 19.7284C13.5088 19.6216 10.4626 19.6216 9.96269 19.7284C9.53533 19.8271 9.07318 20.0567 9.07318 20.5603C9.09803 21.0407 9.37929 21.4647 9.76888 21.7336L9.76789 21.7346C10.2718 22.1274 10.8631 22.3771 11.4823 22.4668C11.8123 22.5121 12.1482 22.5101 12.4901 22.4668C13.1083 22.3771 13.6996 22.1274 14.2035 21.7346L14.2025 21.7336C14.5921 21.4647 14.8734 21.0407 14.8982 20.5603C14.8982 20.0567 14.4361 19.8271 14.0087 19.7284Z" fill="#EA6A12"/>
</svg>
