<svg width="17" height="20" viewBox="0 0 17 20" fill="none" xmlns="http://www.w3.org/2000/svg">
<path opacity="0.4" d="M8.58558 20C8.46175 20 8.33792 19.9716 8.22617 19.9137L4.62508 18.0496C3.60324 17.5201 2.80389 16.9259 2.17971 16.2336C0.813572 14.7195 0.0534863 12.776 0.0414055 10.7599L-0.000877438 4.12426C-0.00591112 3.35842 0.488396 2.67103 1.22734 2.41215L7.83959 0.106788C8.23221 -0.0334361 8.67014 -0.0353973 9.06982 0.099924L15.7072 2.32684C16.4502 2.57493 16.9526 3.25742 16.9566 4.02228L16.9989 10.6628C17.012 12.676 16.2781 14.6274 14.9331 16.1581C14.3159 16.8602 13.5236 17.4632 12.5119 18.0025L8.94297 19.9088C8.83223 19.9686 8.70941 19.999 8.58558 20Z" fill="#959895"/>
<path d="M7.81826 12.3209C7.62497 12.3219 7.43168 12.2523 7.28268 12.1091L5.36585 10.2656C5.06987 9.97927 5.06685 9.51447 5.35981 9.22617C5.65277 8.9369 6.13097 8.93396 6.42796 9.21931L7.80719 10.5451L11.1747 7.22479C11.4687 6.93552 11.9469 6.93258 12.2429 7.21793C12.5399 7.50426 12.5429 7.97004 12.2499 8.25735L8.35083 12.1022C8.20384 12.2474 8.01156 12.3199 7.81826 12.3209Z" fill="#959895"/>
</svg>
