<svg width="20" height="18" viewBox="0 0 20 18" fill="none" xmlns="http://www.w3.org/2000/svg">
<path opacity="0.4" d="M19.2491 10.4764C18.4281 10.4764 17.7601 9.81449 17.7601 9.00099C17.7601 8.1865 18.4281 7.52461 19.2491 7.52461C19.4481 7.52461 19.6391 7.44633 19.7791 7.30761C19.9201 7.1679 19.9991 6.97864 19.9991 6.78146L19.9981 4.10415C19.9981 1.84102 18.1391 0 15.8551 0H4.14308C1.85908 0 8.44727e-05 1.84102 8.44727e-05 4.10415L-0.000915527 6.86766C-0.000915527 7.06485 0.0780845 7.2541 0.219084 7.39381C0.359084 7.53253 0.550084 7.61081 0.749084 7.61081C1.59808 7.61081 2.23808 8.2083 2.23808 9.00099C2.23808 9.81449 1.57008 10.4764 0.749084 10.4764C0.335084 10.4764 -0.000915527 10.8093 -0.000915527 11.2195V13.8949C-0.000915527 16.158 1.85708 18 4.14208 18H15.8561C18.1411 18 19.9991 16.158 19.9991 13.8949V11.2195C19.9991 10.8093 19.6631 10.4764 19.2491 10.4764Z" fill="#959895"/>
<path d="M13.4296 8.58859L12.2506 9.73659L12.5296 11.3596C12.5776 11.6406 12.4646 11.9176 12.2336 12.0836C12.0046 12.2516 11.7056 12.2726 11.4536 12.1386L9.9986 11.3736L8.5406 12.1396C8.4326 12.1966 8.3146 12.2266 8.1976 12.2266C8.0446 12.2266 7.8936 12.1786 7.7636 12.0846C7.5336 11.9176 7.4206 11.6406 7.4686 11.3596L7.7466 9.73659L6.5676 8.58859C6.3636 8.39059 6.2926 8.09959 6.3806 7.82859C6.4696 7.55859 6.6996 7.36659 6.9806 7.32659L8.6066 7.08959L9.3356 5.61259C9.4626 5.35859 9.7166 5.20059 9.9986 5.20059H10.0006C10.2836 5.20159 10.5376 5.35959 10.6626 5.61359L11.3916 7.08959L13.0206 7.32759C13.2986 7.36659 13.5286 7.55859 13.6166 7.82859C13.7056 8.09959 13.6346 8.39059 13.4296 8.58859Z" fill="#959895"/>
</svg>
