<svg width="24" height="25" viewBox="0 0 24 25" fill="none" xmlns="http://www.w3.org/2000/svg">
<path opacity="0.4" d="M21.25 13.4896C20.429 13.4896 19.761 12.8277 19.761 12.0142C19.761 11.1997 20.429 10.5378 21.25 10.5378C21.449 10.5378 21.64 10.4595 21.78 10.3208C21.921 10.1811 22 9.99183 22 9.79464L21.999 7.11733C21.999 4.85421 20.14 3.01318 17.856 3.01318H6.144C3.86 3.01318 2.001 4.85421 2.001 7.11733L2 9.88085C2 10.078 2.079 10.2673 2.22 10.407C2.36 10.5457 2.551 10.624 2.75 10.624C3.599 10.624 4.239 11.2215 4.239 12.0142C4.239 12.8277 3.571 13.4896 2.75 13.4896C2.336 13.4896 2 13.8225 2 14.2327V16.908C2 19.1712 3.858 21.0132 6.143 21.0132H17.857C20.142 21.0132 22 19.1712 22 16.908V14.2327C22 13.8225 21.664 13.4896 21.25 13.4896Z" fill="#EA6A12"/>
<path d="M15.4305 11.6018L14.2515 12.7498L14.5305 14.3728C14.5785 14.6538 14.4655 14.9308 14.2345 15.0968C14.0055 15.2648 13.7065 15.2858 13.4545 15.1518L11.9995 14.3868L10.5415 15.1528C10.4335 15.2098 10.3155 15.2398 10.1985 15.2398C10.0455 15.2398 9.89452 15.1918 9.76452 15.0978C9.53452 14.9308 9.42152 14.6538 9.46952 14.3728L9.74752 12.7498L8.56852 11.6018C8.36452 11.4038 8.29352 11.1128 8.38152 10.8418C8.47052 10.5718 8.70052 10.3798 8.98152 10.3398L10.6075 10.1028L11.3365 8.62578C11.4635 8.37178 11.7175 8.21378 11.9995 8.21378H12.0015C12.2845 8.21478 12.5385 8.37278 12.6635 8.62678L13.3925 10.1028L15.0215 10.3408C15.2995 10.3798 15.5295 10.5718 15.6175 10.8418C15.7065 11.1128 15.6355 11.4038 15.4305 11.6018Z" fill="#EA6A12"/>
</svg>
