<svg width="23" height="20" viewBox="0 0 23 20" fill="none" xmlns="http://www.w3.org/2000/svg">
<path fill-rule="evenodd" clip-rule="evenodd" d="M22.995 5.97236H18.1251C15.8589 5.97621 14.023 7.70572 14.0189 9.84063C14.0158 11.9804 15.8538 13.7176 18.1251 13.7204H22.9991V14.0604C22.9991 17.7929 20.6572 20 16.694 20H6.30517C2.341 20 -0.000915527 17.7929 -0.000915527 14.0604V5.93095C-0.000915527 2.19847 2.341 0 6.30517 0H16.6899C20.6531 0 22.995 2.19847 22.995 5.93095V5.97236ZM5.44818 5.96489H11.9342H11.9383H11.9464C12.432 5.96296 12.8245 5.59029 12.8225 5.13192C12.8204 4.6745 12.4238 4.30472 11.9383 4.30665H5.44818C4.96569 4.30857 4.57418 4.67739 4.57214 5.13288C4.57009 5.59029 4.96263 5.96296 5.44818 5.96489Z" fill="#959895"/>
<path opacity="0.4" d="M16.1421 10.329C16.3826 11.3858 17.3416 12.1294 18.4365 12.1101H22.174C22.6295 12.1101 22.9991 11.7456 22.9991 11.295V8.48212C22.9981 8.03249 22.6295 7.66698 22.174 7.66602H18.3486C17.1031 7.66988 16.0971 8.66874 16.0991 9.89966C16.0991 10.0437 16.1137 10.1878 16.1421 10.329Z" fill="#959895"/>
<ellipse cx="18.3991" cy="9.88846" rx="1.15" ry="1.11111" fill="#959895"/>
</svg>
